<mxfile host="Electron" modified="2023-10-24T07:56:56.595Z" agent="Mozilla/5.0 (Windows NT 10.0; Win64; x64) AppleWebKit/537.36 (KHTML, like Gecko) draw.io/22.0.3 Chrome/114.0.5735.289 Electron/25.8.4 Safari/537.36" etag="WxTBuV0PuJWQrT1J7kQD" version="22.0.3" type="device">
  <diagram name="Page-1" id="3Hy4jSjxMp5h_1L3AQqo">
    <mxGraphModel dx="1050" dy="629" grid="1" gridSize="10" guides="1" tooltips="1" connect="1" arrows="1" fold="1" page="1" pageScale="1" pageWidth="827" pageHeight="1169" math="0" shadow="0">
      <root>
        <mxCell id="0" />
        <mxCell id="1" parent="0" />
        <mxCell id="4Uot0SBW9eKah5AF43OK-1" value="" style="ellipse;html=1;shape=startState;fillColor=#000000;strokeColor=#ff0000;" vertex="1" parent="1">
          <mxGeometry x="399" y="60" width="30" height="30" as="geometry" />
        </mxCell>
        <mxCell id="4Uot0SBW9eKah5AF43OK-2" value="" style="edgeStyle=orthogonalEdgeStyle;html=1;verticalAlign=bottom;endArrow=open;endSize=8;strokeColor=#ff0000;rounded=0;" edge="1" source="4Uot0SBW9eKah5AF43OK-1" parent="1">
          <mxGeometry relative="1" as="geometry">
            <mxPoint x="414" y="120" as="targetPoint" />
          </mxGeometry>
        </mxCell>
        <mxCell id="4Uot0SBW9eKah5AF43OK-12" style="edgeStyle=orthogonalEdgeStyle;shape=connector;rounded=0;orthogonalLoop=1;jettySize=auto;html=1;entryX=0.5;entryY=0;entryDx=0;entryDy=0;labelBackgroundColor=default;strokeColor=#ff0000;align=center;verticalAlign=bottom;fontFamily=Helvetica;fontSize=11;fontColor=default;endArrow=open;endSize=8;" edge="1" parent="1" source="4Uot0SBW9eKah5AF43OK-3" target="4Uot0SBW9eKah5AF43OK-4">
          <mxGeometry relative="1" as="geometry" />
        </mxCell>
        <mxCell id="4Uot0SBW9eKah5AF43OK-3" value="Kuka robot" style="html=1;whiteSpace=wrap;" vertex="1" parent="1">
          <mxGeometry x="359" y="130" width="110" height="50" as="geometry" />
        </mxCell>
        <mxCell id="4Uot0SBW9eKah5AF43OK-13" style="edgeStyle=orthogonalEdgeStyle;shape=connector;rounded=0;orthogonalLoop=1;jettySize=auto;html=1;entryX=0.5;entryY=0;entryDx=0;entryDy=0;labelBackgroundColor=default;strokeColor=#ff0000;align=center;verticalAlign=bottom;fontFamily=Helvetica;fontSize=11;fontColor=default;endArrow=open;endSize=8;" edge="1" parent="1" source="4Uot0SBW9eKah5AF43OK-4" target="4Uot0SBW9eKah5AF43OK-5">
          <mxGeometry relative="1" as="geometry" />
        </mxCell>
        <mxCell id="4Uot0SBW9eKah5AF43OK-4" value="Kuka client thread" style="html=1;whiteSpace=wrap;" vertex="1" parent="1">
          <mxGeometry x="359" y="210" width="110" height="50" as="geometry" />
        </mxCell>
        <mxCell id="4Uot0SBW9eKah5AF43OK-14" style="edgeStyle=orthogonalEdgeStyle;shape=connector;rounded=0;orthogonalLoop=1;jettySize=auto;html=1;entryX=0.5;entryY=0;entryDx=0;entryDy=0;labelBackgroundColor=default;strokeColor=#ff0000;align=center;verticalAlign=bottom;fontFamily=Helvetica;fontSize=11;fontColor=default;endArrow=open;endSize=8;" edge="1" parent="1" source="4Uot0SBW9eKah5AF43OK-5" target="4Uot0SBW9eKah5AF43OK-6">
          <mxGeometry relative="1" as="geometry" />
        </mxCell>
        <mxCell id="4Uot0SBW9eKah5AF43OK-5" value="Kuka client service" style="html=1;whiteSpace=wrap;" vertex="1" parent="1">
          <mxGeometry x="359" y="290" width="110" height="50" as="geometry" />
        </mxCell>
        <mxCell id="4Uot0SBW9eKah5AF43OK-15" style="edgeStyle=orthogonalEdgeStyle;shape=connector;rounded=0;orthogonalLoop=1;jettySize=auto;html=1;entryX=0.5;entryY=0;entryDx=0;entryDy=0;labelBackgroundColor=default;strokeColor=#ff0000;align=center;verticalAlign=bottom;fontFamily=Helvetica;fontSize=11;fontColor=default;endArrow=open;endSize=8;" edge="1" parent="1" source="4Uot0SBW9eKah5AF43OK-6" target="4Uot0SBW9eKah5AF43OK-7">
          <mxGeometry relative="1" as="geometry" />
        </mxCell>
        <mxCell id="4Uot0SBW9eKah5AF43OK-6" value="Session manager&lt;br&gt;service" style="html=1;whiteSpace=wrap;" vertex="1" parent="1">
          <mxGeometry x="359" y="370" width="110" height="50" as="geometry" />
        </mxCell>
        <mxCell id="4Uot0SBW9eKah5AF43OK-20" style="edgeStyle=orthogonalEdgeStyle;shape=connector;rounded=0;orthogonalLoop=1;jettySize=auto;html=1;entryX=0.5;entryY=0;entryDx=0;entryDy=0;labelBackgroundColor=default;strokeColor=#ff0000;align=center;verticalAlign=bottom;fontFamily=Helvetica;fontSize=11;fontColor=default;endArrow=open;endSize=8;" edge="1" parent="1" source="4Uot0SBW9eKah5AF43OK-7" target="4Uot0SBW9eKah5AF43OK-19">
          <mxGeometry relative="1" as="geometry" />
        </mxCell>
        <mxCell id="4Uot0SBW9eKah5AF43OK-7" value="Client data thread" style="html=1;whiteSpace=wrap;" vertex="1" parent="1">
          <mxGeometry x="359" y="450" width="110" height="50" as="geometry" />
        </mxCell>
        <mxCell id="4Uot0SBW9eKah5AF43OK-17" style="edgeStyle=orthogonalEdgeStyle;shape=connector;rounded=0;orthogonalLoop=1;jettySize=auto;html=1;entryX=0;entryY=0.5;entryDx=0;entryDy=0;labelBackgroundColor=default;strokeColor=#ff0000;align=center;verticalAlign=bottom;fontFamily=Helvetica;fontSize=11;fontColor=default;endArrow=open;endSize=8;" edge="1" parent="1" source="4Uot0SBW9eKah5AF43OK-9" target="4Uot0SBW9eKah5AF43OK-11">
          <mxGeometry relative="1" as="geometry" />
        </mxCell>
        <mxCell id="4Uot0SBW9eKah5AF43OK-9" value="Actor" style="shape=umlActor;verticalLabelPosition=bottom;verticalAlign=top;html=1;fontFamily=Helvetica;fontSize=11;fontColor=default;" vertex="1" parent="1">
          <mxGeometry x="40" y="285" width="30" height="60" as="geometry" />
        </mxCell>
        <mxCell id="4Uot0SBW9eKah5AF43OK-18" style="edgeStyle=orthogonalEdgeStyle;shape=connector;rounded=0;orthogonalLoop=1;jettySize=auto;html=1;entryX=0;entryY=0.5;entryDx=0;entryDy=0;labelBackgroundColor=default;strokeColor=#ff0000;align=center;verticalAlign=bottom;fontFamily=Helvetica;fontSize=11;fontColor=default;endArrow=open;endSize=8;" edge="1" parent="1" source="4Uot0SBW9eKah5AF43OK-11" target="4Uot0SBW9eKah5AF43OK-5">
          <mxGeometry relative="1" as="geometry" />
        </mxCell>
        <mxCell id="4Uot0SBW9eKah5AF43OK-11" value="KukaComm controller" style="html=1;whiteSpace=wrap;" vertex="1" parent="1">
          <mxGeometry x="150" y="290" width="110" height="50" as="geometry" />
        </mxCell>
        <mxCell id="4Uot0SBW9eKah5AF43OK-19" value="" style="ellipse;html=1;shape=endState;fillColor=#000000;strokeColor=#ff0000;fontFamily=Helvetica;fontSize=11;fontColor=default;" vertex="1" parent="1">
          <mxGeometry x="399" y="530" width="30" height="30" as="geometry" />
        </mxCell>
        <mxCell id="4Uot0SBW9eKah5AF43OK-22" style="edgeStyle=orthogonalEdgeStyle;shape=connector;rounded=0;orthogonalLoop=1;jettySize=auto;html=1;entryX=0.5;entryY=0;entryDx=0;entryDy=0;labelBackgroundColor=default;strokeColor=#ff0000;align=center;verticalAlign=bottom;fontFamily=Helvetica;fontSize=11;fontColor=default;endArrow=open;endSize=8;" edge="1" parent="1">
          <mxGeometry relative="1" as="geometry">
            <mxPoint x="428.31" y="210" as="sourcePoint" />
            <mxPoint x="428.31" y="180" as="targetPoint" />
          </mxGeometry>
        </mxCell>
        <mxCell id="4Uot0SBW9eKah5AF43OK-23" style="edgeStyle=orthogonalEdgeStyle;shape=connector;rounded=0;orthogonalLoop=1;jettySize=auto;html=1;entryX=0.5;entryY=0;entryDx=0;entryDy=0;labelBackgroundColor=default;strokeColor=#ff0000;align=center;verticalAlign=bottom;fontFamily=Helvetica;fontSize=11;fontColor=default;endArrow=open;endSize=8;" edge="1" parent="1">
          <mxGeometry relative="1" as="geometry">
            <mxPoint x="429" y="290" as="sourcePoint" />
            <mxPoint x="429" y="260" as="targetPoint" />
          </mxGeometry>
        </mxCell>
      </root>
    </mxGraphModel>
  </diagram>
</mxfile>
